<svg xmlns="http://www.w3.org/2000/svg" width="19.375" height="27.556" viewBox="0 0 19.375 27.556"><defs><style>.a{fill:#ffda2d;}.b{fill:#80aef8;}.c{fill:#4086f4;}.d{fill:#59c36a;}.e{fill:#00a66c;}.f{fill:#fdbf00;}.g{fill:#4175df;}.h{fill:#f03800;}</style></defs><g transform="translate(0.517 8.799)"><g transform="translate(0)"><path class="a" d="M95.659,169.151,92.7,173.723l-2.822,1.208a19.01,19.01,0,0,1-4.279-7.023l1.69-3.143,2.718-1.265a5.345,5.345,0,0,0-.081.888,4.858,4.858,0,0,0,4.844,4.844A5.345,5.345,0,0,0,95.659,169.151Z" transform="translate(-85.6 -163.5)"/></g></g><path class="b" d="M245.152,21.641a5.284,5.284,0,0,0,.08-.883,4.858,4.858,0,0,0-4.838-4.844h-.006a5.341,5.341,0,0,0-.888.081l4.295-4.295a9.664,9.664,0,0,1,5.651,5.651l-4.295,4.295S245.152,21.643,245.152,21.641Z" transform="translate(-230.701 -11.07)"/><path class="c" d="M265.086,17.351l-1.469,2.869-2.826,1.426s0,0,0,0a5.281,5.281,0,0,0,.08-.883,4.858,4.858,0,0,0-4.838-4.844h0v-.809L257,12.954l2.438-1.254A9.664,9.664,0,0,1,265.086,17.351Z" transform="translate(-246.341 -11.07)"/><g transform="translate(4.795 6.281)"><path class="d" d="M179.048,116.7l-4.295,4.295a4.893,4.893,0,0,1-3.875,3.875h0l-4.675,4.675-1.1,1.1c.275.307.517.581.775.872,1.776,2.018,3.31,3.87,3.31,5.646a.807.807,0,0,0,1.615,0c0-1.776,1.534-3.627,3.31-5.646,2.487-2.793,5.57-6.281,5.57-11.415A9.252,9.252,0,0,0,179.048,116.7Z" transform="translate(-165.098 -116.7)"/><path class="e" d="M265.087,116.7l-4.295,4.295h0a4.893,4.893,0,0,1-3.875,3.875h0l-.886.886v12.219a.8.8,0,0,0,.806-.807c0-1.776,1.534-3.627,3.31-5.646,2.487-2.793,5.57-6.281,5.57-11.415A9.252,9.252,0,0,0,265.087,116.7Z" transform="translate(-251.137 -116.7)"/></g><g transform="translate(9.689 14.451)"><path class="f" d="M256.031,269.386l.886-.886a5.361,5.361,0,0,1-.886.081Z" transform="translate(-256.031 -268.5)"/></g><path class="c" d="M139.053.63l-4.295,4.295a4.9,4.9,0,0,0-2.535,1.34l-2.5-1.044L128.8,2.842A9.6,9.6,0,0,1,135.646,0,9.251,9.251,0,0,1,139.053.63Z" transform="translate(-125.958 0)"/><path class="g" d="M256.031,4.038,259.436.633A9.25,9.25,0,0,0,256.031,0V4.038Z" transform="translate(-246.342 -0.003)"/><path class="h" d="M82.265,56.223a4.9,4.9,0,0,0-1.34,2.535l-4.408,4.408A12.189,12.189,0,0,1,76,59.646,9.6,9.6,0,0,1,78.842,52.8Z" transform="translate(-76 -49.958)"/></svg>