<svg xmlns="http://www.w3.org/2000/svg" width="40.006" height="36.667" viewBox="0 0 40.006 36.667"><path d="M38.362,28.014H7.082l-.465-5.18a1.643,1.643,0,0,0-1.636-1.5H1.643a1.643,1.643,0,0,0,0,3.286H3.479c1,11.179-1.59-17.714,1.89,21.053a6.321,6.321,0,0,0,2.366,4.283,4.98,4.98,0,1,0,8.606,1.37h8.992a4.981,4.981,0,1,0,4.684-3.286H11.668a3.051,3.051,0,0,1-2.805-1.85L35.12,44.65a1.643,1.643,0,0,0,1.5-1.242l3.338-13.353A1.644,1.644,0,0,0,38.362,28.014Zm-26.7,26.705a1.7,1.7,0,1,1,1.7-1.7A1.7,1.7,0,0,1,11.657,54.719Zm18.36,0a1.7,1.7,0,1,1,1.7-1.7A1.7,1.7,0,0,1,30.017,54.719ZM33.723,41.44l-25.3,1.487L7.377,31.3h28.88Z" transform="translate(0 -21.338)"/></svg>